<?xml version="1.0" encoding="utf-8"?>
<!-- Generator: Adobe Illustrator 23.0.0, SVG Export Plug-In . SVG Version: 6.00 Build 0)  -->
<svg version="1.1" id="Layer_1" xmlns="http://www.w3.org/2000/svg" xmlns:xlink="http://www.w3.org/1999/xlink" x="0px" y="0px"
	 viewBox="0 0 512 512" style="enable-background:new 0 0 512 512;" xml:space="preserve">
<style type="text/css">
	.st0{fill:none;stroke:#012441;stroke-width:19.108;stroke-miterlimit:10;}
	.st1{fill:#012441;}
	.st2{fill:none;stroke:#012441;stroke-width:22.268;stroke-miterlimit:10;}
</style>
<path class="st0" d="M27.1,278c-1.9-55.5,119.3-118.1,227.7-119.3c112.5-1.2,238.1,63.4,235.8,119.9
	c-2.4,57.1-135.3,105.6-244,102.1C150.7,377.7,29,332.8,27.1,278z"/>
<path class="st1" d="M466.4,356.7l-17.1-23.6c-3.7-5.1-10.9-6.3-16.1-2.5h0c-5.1,3.7-6.3,10.9-2.5,16.1l17.1,23.6
	c3.7,5.1,10.9,6.3,16.1,2.5h0C469,369,470.2,361.8,466.4,356.7z"/>
<path class="st1" d="M166.3,415.9l11.1-30.6c2.3-6.4-1-13.4-7.3-15.7h0c-6.4-2.3-13.4,1-15.7,7.3l-11.1,30.6
	c-2.3,6.4,1,13.4,7.3,15.7h0C157,425.5,164,422.2,166.3,415.9z"/>
<path class="st1" d="M390.4,405.5l-13.5-33.4c-2.4-5.9-9.1-8.7-15-6.4l0,0c-5.9,2.4-8.7,9.1-6.4,15l13.5,33.4
	c2.4,5.9,9.1,8.7,15,6.4l0,0C389.9,418.1,392.8,411.4,390.4,405.5z"/>
<path class="st1" d="M56.1,360.1l14.4-22.6c3.4-5.3,10.4-6.9,15.8-3.5l0,0c5.3,3.4,6.9,10.4,3.5,15.8l-14.4,22.6
	c-3.4,5.3-10.4,6.9-15.8,3.5h0C54.3,372.4,52.7,365.4,56.1,360.1z"/>
<path class="st1" d="M279.5,429.1l0-36c0-6.4-5.1-11.5-11.5-11.5h0c-6.4,0-11.5,5.1-11.5,11.5l0,36c0,6.4,5.1,11.5,11.5,11.5h0
	C274.4,440.6,279.5,435.5,279.5,429.1z"/>
<path class="st2" d="M36.1,262.2c33.4,25.7,111.1,78,218.7,80.9c113.5,3,196.5-50.7,230.1-75.6"/>
</svg>
