<svg id="Capa_1" data-name="Capa 1" xmlns="http://www.w3.org/2000/svg" viewBox="0 0 46.2 43.66"><defs><style>.cls-1{fill:#012441;}</style></defs><title>menu-button2</title><path class="cls-1" d="M50.47,52.84H10.27a3,3,0,1,1,0-6h40.2a3,3,0,0,1,0,6Z" transform="translate(-7.27 -9.18)"/><path class="cls-1" d="M50.47,34H10.27a3,3,0,0,1,0-6h40.2a3,3,0,1,1,0,6Z" transform="translate(-7.27 -9.18)"/><path class="cls-1" d="M50.47,15.18H10.27a3,3,0,0,1,0-6h40.2a3,3,0,0,1,0,6Z" transform="translate(-7.27 -9.18)"/></svg>