<?xml version="1.0" encoding="utf-8"?>
<!-- Generator: Adobe Illustrator 23.0.0, SVG Export Plug-In . SVG Version: 6.00 Build 0)  -->
<svg version="1.1" id="Capa_1" xmlns="http://www.w3.org/2000/svg" xmlns:xlink="http://www.w3.org/1999/xlink" x="0px" y="0px"
	 viewBox="0 0 561 561" style="enable-background:new 0 0 561 561;" xml:space="preserve">
<style type="text/css">
	.st0{fill:#012441;}
	.st1{fill:#FFFFFF;}
</style>
<g>
	<g id="visibility">
		<path class="st0" d="M280.5,89.2C153,89.2,43.3,168.3,0,280.5c43.3,112.2,153,191.3,280.5,191.3s237.2-79,280.5-191.3
			C517.7,168.3,408,89.2,280.5,89.2z M280.5,408C209.1,408,153,351.9,153,280.5S209.1,153,280.5,153S408,209.1,408,280.5
			S351.9,408,280.5,408z M280.5,204c-43.4,0-76.5,33.1-76.5,76.5s33.1,76.5,76.5,76.5s76.5-33.1,76.5-76.5S323.9,204,280.5,204z"/>
	</g>
</g>
<rect x="233.6" y="-6.1" transform="matrix(0.866 -0.5 0.5 0.866 -110.8584 163.9832)" class="st0" width="34" height="589.8"/>
<rect x="263" y="-23.1" transform="matrix(0.866 -0.5 0.5 0.866 -98.4136 176.4281)" class="st1" width="34" height="589.8"/>
</svg>
